HIERARCHY
ROOT SimulationBone
{
	OFFSET 0.000000 0.000000 0.000000
	CHANNELS 6 Xposition Yposition Zposition Zrotation Yrotation Xrotation 
	JOINT Hips
	{
		OFFSET 0.000000 0.000000 0.000000
		CHANNELS 6 Xposition Yposition Zposition Zrotation Yrotation Xrotation 
		JOINT RightUpLeg
		{
			OFFSET 0.103458 1.857820 10.548502
			CHANNELS 3 Zrotation Yrotation Xrotation
			JOINT RightLeg
			{
				OFFSET 43.500000 -0.000023 -0.000011
				CHANNELS 3 Zrotation Yrotation Xrotation
				JOINT RightFoot
				{
					OFFSET 42.372192 0.000038 0.000002
					CHANNELS 3 Zrotation Yrotation Xrotation
					JOINT RightToe
					{
						OFFSET 17.299992 -0.000004 0.000006
						CHANNELS 3 Zrotation Yrotation Xrotation
						End Site
						{
							OFFSET 0.000000 0.000000 0.000000
						}
					}
				}
			}
		}
		JOINT LeftUpLeg
		{
			OFFSET 0.103461 1.857814 -10.548508
			CHANNELS 3 Zrotation Yrotation Xrotation
			JOINT LeftLeg
			{
				OFFSET 43.500042 -0.000015 0.000008
				CHANNELS 3 Zrotation Yrotation Xrotation
				JOINT LeftFoot
				{
					OFFSET 42.372253 0.000008 0.000006
					CHANNELS 3 Zrotation Yrotation Xrotation
					JOINT LeftToe
					{
						OFFSET 17.299973 -0.000014 0.000011
						CHANNELS 3 Zrotation Yrotation Xrotation
						End Site
						{
							OFFSET 0.000000 0.000000 0.000000
						}
					}
				}
			}
		}
		JOINT Spine
		{
			OFFSET 6.901966 -2.603737 -0.000007
			CHANNELS 3 Zrotation Yrotation Xrotation
			JOINT Spine1
			{
				OFFSET 12.588102 0.000017 0.000001
				CHANNELS 3 Zrotation Yrotation Xrotation
				JOINT Spine2
				{
					OFFSET 12.343197 -0.000013 0.000000
					CHANNELS 3 Zrotation Yrotation Xrotation
					JOINT Neck
					{
						OFFSET 25.832905 -0.000008 0.000000
						CHANNELS 3 Zrotation Yrotation Xrotation
						JOINT Head
						{
							OFFSET 11.766610 0.000009 -0.000002
							CHANNELS 3 Zrotation Yrotation Xrotation
							End Site
							{
								OFFSET 0.000000 0.000000 0.000000
							}
						}
					}
					JOINT RightShoulder
					{
						OFFSET 19.745903 -1.480377 6.000115
						CHANNELS 3 Zrotation Yrotation Xrotation
						JOINT RightArm
						{
							OFFSET 11.284125 -0.000014 -0.000024
							CHANNELS 3 Zrotation Yrotation Xrotation
							JOINT RightForeArm
							{
								OFFSET 33.000046 -0.000012 0.000029
								CHANNELS 3 Zrotation Yrotation Xrotation
								JOINT RightHand
								{
									OFFSET 25.199989 0.000034 0.000012
									CHANNELS 3 Zrotation Yrotation Xrotation
									End Site
									{
										OFFSET 0.000000 0.000000 0.000000
									}
								}
							}
						}
					}
					JOINT LeftShoulder
					{
						OFFSET 19.746098 -1.480362 -6.000071
						CHANNELS 3 Zrotation Yrotation Xrotation
						JOINT LeftArm
						{
							OFFSET 11.284137 -0.000006 -0.000008
							CHANNELS 3 Zrotation Yrotation Xrotation
							JOINT LeftForeArm
							{
								OFFSET 33.000095 0.000017 0.000000
								CHANNELS 3 Zrotation Yrotation Xrotation
								JOINT LeftHand
								{
									OFFSET 25.199778 0.000144 0.000423
									CHANNELS 3 Zrotation Yrotation Xrotation
									End Site
									{
										OFFSET 0.000000 0.000000 0.000000
									}
								}
							}
						}
					}
				}
			}
		}
	}
}
MOTION
Frames: 11
Frame Time: 0.033333
326.721515 0.000000 18.523921 180.000000 -13.658836 180.000000 0.353445 84.927170 -4.164152 100.590696 -3.119651 -178.438697 165.687603 -9.824997 -179.177855 -85.202512 1.785882 -4.296938 68.526523 1.168553 -5.226062 21.454558 0.003106 0.000022 174.110715 -13.178205 -176.816973 -35.958716 5.223878 13.121920 92.423046 -10.572800 -13.899401 21.454553 -0.003092 0.000000 10.062893 2.150624 -0.646605 10.099200 4.349422 -1.103621 9.780181 4.342541 -1.129920 11.154024 4.031260 -4.791714 -1.529206 3.033993 -5.287972 -147.347466 -73.867389 -34.882910 -0.224875 50.305077 32.110843 -73.622028 -13.469796 2.572391 -2.763103 -13.664710 32.836240 -157.545417 73.495130 24.486020 -1.297482 -40.901611 -30.738416 -96.402690 3.270021 -2.818349 -9.154672 6.231313 -59.472233 
324.270822 0.000000 19.214719 180.000000 -9.560751 180.000000 -0.173232 85.464561 -4.136498 99.480105 -2.984378 179.105134 160.731659 -8.220200 -178.813833 -86.147373 2.947284 -8.956664 70.249834 4.430418 -5.760294 21.454553 0.003112 0.000016 176.731445 -13.914093 178.642191 -33.862097 4.955946 11.555151 92.084248 -9.662182 -14.416934 21.454553 -0.003092 0.000000 10.073458 2.162011 -0.241026 10.135768 4.336774 -0.291761 9.816669 4.334798 -0.318002 12.412024 2.299223 -4.367124 -1.230369 3.100643 -5.021517 -147.850605 -72.719002 -34.406586 1.029352 51.822909 39.229174 -65.329277 -16.043006 2.409102 1.550860 -9.197386 30.489182 -161.584900 72.937384 20.349498 -5.305949 -45.550060 -27.133353 -96.868209 3.247440 -2.837472 -10.362311 6.618049 -58.907390 
321.730489 0.000000 19.720784 180.000000 -5.579983 180.000000 -0.584973 86.291862 -4.251693 97.988504 -3.560875 176.040245 156.074208 -6.685304 -178.975203 -84.136674 3.117927 -9.514478 72.475574 4.793252 -6.191767 21.454558 0.003111 0.000017 179.417404 -12.908094 174.090771 -31.117007 5.077458 9.352227 91.292978 -8.446045 -15.156511 21.454550 -0.003092 0.000000 9.960834 1.927747 0.160867 9.922546 3.834574 0.486826 9.603674 3.837309 0.463620 13.646073 0.834754 -3.814472 -1.426314 2.288869 -4.393878 -147.477185 -71.434408 -34.833801 4.225526 52.734361 46.688352 -58.246972 -17.200937 2.215413 5.523807 -1.154295 31.931005 -164.669304 73.204328 17.180431 -10.007080 -50.348545 -24.786994 -97.920413 3.093433 -2.873489 -11.026830 6.173730 -57.881940 
319.100067 0.000000 20.032752 180.000000 -1.741415 180.000000 -0.964470 87.221519 -4.449577 96.140851 -4.429900 173.026341 151.501041 -5.443695 -179.181461 -79.574470 2.413170 -7.879320 73.639268 3.982098 -5.245264 21.454555 0.003108 0.000017 -178.261435 -10.990493 170.756259 -27.910402 4.817929 6.524487 89.997407 -6.886050 -15.812930 21.454551 -0.003092 0.000000 9.795043 1.622154 0.561498 9.598468 3.192144 1.256128 9.279919 3.199536 1.236802 13.550280 -0.136208 -3.518634 -1.516498 1.182106 -3.899883 -146.823003 -70.068827 -35.554427 8.730676 52.999119 54.060770 -53.087840 -17.609578 2.058240 7.908415 6.808781 37.442810 -168.307527 73.946449 13.444560 -14.889971 -53.966827 -22.880179 -99.504969 2.839211 -2.926094 -11.353269 4.149357 -57.641087 
316.381111 0.000000 20.146402 180.000000 1.976011 180.000000 -1.290226 87.954239 -4.699890 94.506327 -5.294131 170.269527 147.908990 -4.334701 -178.460958 -72.450016 0.609149 -6.329944 74.504578 2.926504 -5.391926 21.454558 0.003109 0.000019 -176.294095 -8.805696 167.873919 -25.217881 4.613510 4.195171 88.648759 -5.626225 -16.213469 21.454555 -0.003092 0.000000 9.736822 1.271525 1.024015 9.486044 2.454856 2.149290 9.167855 2.467650 2.134421 12.452322 -0.551636 -3.560402 -2.144648 1.101327 -3.955080 -146.125409 -69.251787 -36.302397 13.764359 52.803725 60.257862 -50.957641 -17.184370 1.957485 11.628393 13.615162 43.014284 -172.306261 75.205417 9.350900 -19.714462 -56.092283 -21.069491 -102.007216 2.547345 -3.016532 -11.323949 2.014906 -57.878572 
313.578059 0.000000 20.062123 180.000000 5.605739 180.000000 -1.526065 88.396431 -4.984843 93.341955 -5.760046 168.269361 145.857228 -3.478805 -176.701379 -62.706553 -1.580747 -6.107536 75.106051 2.575557 -6.434050 21.454562 0.003109 0.000016 -174.329650 -6.757707 164.734764 -23.048630 5.072831 3.005466 87.305568 -5.087992 -16.343453 21.454551 -0.003092 0.000000 9.838835 1.003719 1.479955 9.691127 1.879991 3.039139 9.373322 1.898168 3.027737 10.800817 -0.831600 -3.938384 -2.785207 1.811348 -4.535634 -145.477797 -68.774186 -36.987677 17.784843 52.128895 65.423063 -50.784280 -16.732864 1.921564 14.956738 18.371450 44.673511 -177.106081 77.151269 4.464414 -24.129892 -57.268776 -18.701283 -104.252504 2.144459 -3.087386 -11.616058 0.465022 -56.391223 
310.694740 0.000000 19.782358 180.000000 9.127646 180.000000 -1.689091 88.703529 -5.219859 92.499577 -6.350746 166.976023 145.927360 -2.709704 -174.872322 -49.649946 -3.253869 -5.551374 76.104256 2.040782 -7.303003 21.454560 0.003107 0.000017 -172.598143 -4.399905 163.042312 -21.648027 5.428054 1.363247 85.830254 -4.269468 -16.488442 21.454551 -0.003092 0.000000 10.013085 0.688097 1.899590 10.034258 1.208877 3.851854 9.716858 1.231959 3.844491 8.895782 -0.517149 -4.434091 -3.160702 2.432785 -5.167301 -145.790401 -68.334718 -36.681903 20.422003 50.623825 67.917926 -51.958762 -16.390227 1.937926 16.050958 22.101232 42.780507 176.069832 79.126772 -2.448723 -26.637345 -57.543333 -16.774933 -106.064799 1.816063 -3.143950 -11.040640 -0.481426 -51.910483 
307.734497 0.000000 19.300877 180.000000 12.528777 180.000000 -1.731017 88.852821 -5.404518 92.162807 -7.316959 166.598510 147.952389 -0.868393 -171.993794 -35.296997 -3.787994 -6.028081 74.880867 1.659945 -9.686591 21.454560 0.003106 0.000017 -170.856923 -1.765905 162.844195 -21.204218 5.472587 -0.455351 84.667571 -3.308033 -16.805832 21.454551 -0.003092 0.000000 10.207456 0.287191 2.198261 10.409387 0.375417 4.413387 10.092311 0.401899 4.411037 7.782241 -0.141602 -5.009732 -3.533717 3.422424 -5.957870 -146.311832 -68.451930 -36.139733 21.837829 49.300787 68.072507 -53.554076 -16.205095 1.979970 16.052666 24.311929 38.843672 171.381700 80.393929 -7.174700 -27.108444 -56.853754 -15.600926 -106.689898 1.616445 -3.157341 -11.136115 -0.833915 -47.952166 
304.700160 0.000000 18.623330 180.000000 15.808181 180.000000 -1.693152 88.619629 -5.343220 92.187697 -8.060527 167.117350 150.090129 0.561097 -167.310347 -25.749866 -5.102716 -7.171092 74.360625 2.054781 -11.151537 21.454557 0.003114 0.000019 -169.521129 -0.084308 162.963232 -22.832223 5.303386 -1.403005 83.750659 -2.791143 -16.701390 21.454553 -0.003092 0.000000 10.339983 -0.064993 2.312637 10.660294 -0.342826 4.609353 10.343309 -0.315149 4.611325 7.623979 -0.023178 -5.315144 -3.482129 4.841905 -6.589484 -145.238413 -68.796213 -37.233622 21.524595 48.464956 66.918628 -54.569404 -15.883502 1.993665 13.661800 25.213741 33.725548 171.472773 80.880054 -7.067627 -25.454688 -56.195979 -15.252069 -106.044499 1.500350 -3.121052 -10.567482 -1.086607 -44.603956 
301.615654 0.000000 17.736076 180.000000 18.972867 180.000000 -1.481926 87.791840 -5.052530 92.557112 -8.004419 168.474142 150.992752 1.491001 -168.749905 -25.121089 -4.846954 -4.978949 75.866763 0.754748 -10.572566 21.454558 0.003112 0.000018 -168.882301 0.092699 164.151029 -27.527501 5.026701 -2.282996 82.293671 -2.455077 -16.856202 21.454550 -0.003092 0.000000 10.342453 -0.244547 2.248842 10.658736 -0.695253 4.465541 10.341653 -0.668434 4.469640 9.448339 0.489773 -5.360750 -3.484325 5.780157 -6.829674 -144.436836 -69.251117 -38.041606 20.730099 47.730315 65.478770 -55.494423 -16.005111 2.034492 13.039856 23.786129 32.105038 173.276927 80.481628 -5.250109 -21.130210 -55.729528 -16.808436 -103.332504 1.761537 -3.020169 -10.279197 0.001578 -42.969745 
298.505606 0.000000 16.641353 180.000000 22.031582 180.000000 -1.292490 86.771263 -4.658885 93.341678 -7.883481 170.020943 152.942634 1.798293 -173.730151 -26.989064 -4.243622 -1.927710 75.347546 -1.306702 -9.778735 21.454558 0.003117 0.000019 -169.554925 -0.401991 166.030465 -35.348329 4.283946 -3.356319 78.237959 -2.152916 -16.199488 21.454551 -0.003092 0.000000 10.339353 -0.430262 2.031931 10.647948 -1.045700 4.015692 10.330673 -1.021589 4.021905 11.549098 1.143401 -5.194962 -3.397867 6.876478 -6.895831 -144.040302 -69.530411 -38.438826 18.650315 47.230092 62.912442 -55.769389 -16.168615 2.055303 12.383543 21.378557 33.809614 176.852408 79.654267 -1.641475 -16.026171 -55.808451 -19.103418 -98.838745 2.400865 -2.865893 -8.577676 2.211995 -44.876990 
